<mxfile host="app.diagrams.net" modified="2023-05-31T01:34:50.394Z" agent="Mozilla/5.0 (Windows NT 10.0; Win64; x64) AppleWebKit/537.36 (KHTML, like Gecko) Chrome/112.0.0.0 Safari/537.36" etag="B2NkFxdXiLlU6ew9ipRH" version="21.3.3" type="github" pages="4">
  <diagram name="第 1 页" id="SPBb4syi0zHzzEW8AKOw">
    <mxGraphModel dx="1434" dy="841" grid="1" gridSize="10" guides="1" tooltips="1" connect="1" arrows="1" fold="1" page="1" pageScale="1" pageWidth="827" pageHeight="1169" math="0" shadow="0">
      <root>
        <mxCell id="0" />
        <mxCell id="1" parent="0" />
        <mxCell id="tlqLEsivVTAE4VKoMrY2-5" value="" style="edgeStyle=orthogonalEdgeStyle;rounded=0;orthogonalLoop=1;jettySize=auto;html=1;" parent="1" source="tlqLEsivVTAE4VKoMrY2-1" target="tlqLEsivVTAE4VKoMrY2-4" edge="1">
          <mxGeometry relative="1" as="geometry" />
        </mxCell>
        <mxCell id="tlqLEsivVTAE4VKoMrY2-1" value="customAudience" style="rounded=0;whiteSpace=wrap;html=1;" parent="1" vertex="1">
          <mxGeometry x="80" y="220" width="120" height="60" as="geometry" />
        </mxCell>
        <mxCell id="tlqLEsivVTAE4VKoMrY2-7" value="" style="edgeStyle=orthogonalEdgeStyle;rounded=0;orthogonalLoop=1;jettySize=auto;html=1;" parent="1" source="tlqLEsivVTAE4VKoMrY2-4" target="tlqLEsivVTAE4VKoMrY2-6" edge="1">
          <mxGeometry relative="1" as="geometry" />
        </mxCell>
        <mxCell id="tlqLEsivVTAE4VKoMrY2-10" value="是" style="edgeLabel;html=1;align=center;verticalAlign=middle;resizable=0;points=[];" parent="tlqLEsivVTAE4VKoMrY2-7" vertex="1" connectable="0">
          <mxGeometry x="-0.2222" y="-2" relative="1" as="geometry">
            <mxPoint as="offset" />
          </mxGeometry>
        </mxCell>
        <mxCell id="tlqLEsivVTAE4VKoMrY2-9" value="" style="edgeStyle=orthogonalEdgeStyle;rounded=0;orthogonalLoop=1;jettySize=auto;html=1;" parent="1" source="tlqLEsivVTAE4VKoMrY2-4" target="tlqLEsivVTAE4VKoMrY2-8" edge="1">
          <mxGeometry relative="1" as="geometry" />
        </mxCell>
        <mxCell id="tlqLEsivVTAE4VKoMrY2-11" value="否" style="edgeLabel;html=1;align=center;verticalAlign=middle;resizable=0;points=[];" parent="tlqLEsivVTAE4VKoMrY2-9" vertex="1" connectable="0">
          <mxGeometry x="-0.2706" relative="1" as="geometry">
            <mxPoint as="offset" />
          </mxGeometry>
        </mxCell>
        <mxCell id="tlqLEsivVTAE4VKoMrY2-4" value="是否存在缓存" style="rhombus;whiteSpace=wrap;html=1;rounded=0;" parent="1" vertex="1">
          <mxGeometry x="300" y="210" width="130" height="80" as="geometry" />
        </mxCell>
        <mxCell id="tlqLEsivVTAE4VKoMrY2-20" value="" style="edgeStyle=orthogonalEdgeStyle;rounded=0;orthogonalLoop=1;jettySize=auto;html=1;" parent="1" source="tlqLEsivVTAE4VKoMrY2-6" target="tlqLEsivVTAE4VKoMrY2-19" edge="1">
          <mxGeometry relative="1" as="geometry" />
        </mxCell>
        <mxCell id="tlqLEsivVTAE4VKoMrY2-6" value="返回缓存结果" style="whiteSpace=wrap;html=1;rounded=0;" parent="1" vertex="1">
          <mxGeometry x="305" y="380" width="120" height="60" as="geometry" />
        </mxCell>
        <mxCell id="tlqLEsivVTAE4VKoMrY2-16" value="" style="edgeStyle=orthogonalEdgeStyle;rounded=0;orthogonalLoop=1;jettySize=auto;html=1;" parent="1" source="tlqLEsivVTAE4VKoMrY2-8" target="tlqLEsivVTAE4VKoMrY2-15" edge="1">
          <mxGeometry relative="1" as="geometry" />
        </mxCell>
        <mxCell id="tlqLEsivVTAE4VKoMrY2-8" value="使用兜底逻辑" style="whiteSpace=wrap;html=1;rounded=0;direction=east;flipV=0;flipH=0;" parent="1" vertex="1">
          <mxGeometry x="520" y="220" width="120" height="60" as="geometry" />
        </mxCell>
        <mxCell id="tlqLEsivVTAE4VKoMrY2-18" value="" style="edgeStyle=orthogonalEdgeStyle;rounded=0;orthogonalLoop=1;jettySize=auto;html=1;" parent="1" source="tlqLEsivVTAE4VKoMrY2-15" target="tlqLEsivVTAE4VKoMrY2-17" edge="1">
          <mxGeometry relative="1" as="geometry" />
        </mxCell>
        <mxCell id="tlqLEsivVTAE4VKoMrY2-15" value="请求端云协同服务端接口获取兜底配置" style="whiteSpace=wrap;html=1;rounded=0;" parent="1" vertex="1">
          <mxGeometry x="720" y="220" width="120" height="60" as="geometry" />
        </mxCell>
        <mxCell id="tlqLEsivVTAE4VKoMrY2-17" value="返回结果" style="whiteSpace=wrap;html=1;rounded=0;" parent="1" vertex="1">
          <mxGeometry x="920" y="220" width="120" height="60" as="geometry" />
        </mxCell>
        <mxCell id="tlqLEsivVTAE4VKoMrY2-24" value="" style="edgeStyle=orthogonalEdgeStyle;rounded=0;orthogonalLoop=1;jettySize=auto;html=1;" parent="1" source="tlqLEsivVTAE4VKoMrY2-19" target="tlqLEsivVTAE4VKoMrY2-23" edge="1">
          <mxGeometry relative="1" as="geometry" />
        </mxCell>
        <mxCell id="tlqLEsivVTAE4VKoMrY2-19" value="缓存的云控下发的人群定向" style="whiteSpace=wrap;html=1;rounded=0;" parent="1" vertex="1">
          <mxGeometry x="305" y="520" width="120" height="60" as="geometry" />
        </mxCell>
        <mxCell id="tlqLEsivVTAE4VKoMrY2-22" style="edgeStyle=orthogonalEdgeStyle;rounded=0;orthogonalLoop=1;jettySize=auto;html=1;exitX=1;exitY=0.5;exitDx=0;exitDy=0;entryX=0;entryY=0.5;entryDx=0;entryDy=0;" parent="1" source="tlqLEsivVTAE4VKoMrY2-21" target="tlqLEsivVTAE4VKoMrY2-19" edge="1">
          <mxGeometry relative="1" as="geometry" />
        </mxCell>
        <mxCell id="tlqLEsivVTAE4VKoMrY2-21" value="设备、用户标签" style="rounded=0;whiteSpace=wrap;html=1;" parent="1" vertex="1">
          <mxGeometry x="80" y="520" width="120" height="60" as="geometry" />
        </mxCell>
        <mxCell id="tlqLEsivVTAE4VKoMrY2-23" value="返回结果" style="whiteSpace=wrap;html=1;rounded=0;" parent="1" vertex="1">
          <mxGeometry x="505" y="520" width="120" height="60" as="geometry" />
        </mxCell>
      </root>
    </mxGraphModel>
  </diagram>
  <diagram id="T6YLxTNs3Mx055KQPONy" name="第 2 页">
    <mxGraphModel dx="1434" dy="841" grid="1" gridSize="10" guides="1" tooltips="1" connect="1" arrows="1" fold="1" page="1" pageScale="1" pageWidth="827" pageHeight="1169" math="0" shadow="0">
      <root>
        <mxCell id="0" />
        <mxCell id="1" parent="0" />
        <mxCell id="QtBnAyVnSnONAj75vQxU-3" value="" style="edgeStyle=orthogonalEdgeStyle;rounded=0;orthogonalLoop=1;jettySize=auto;html=1;" parent="1" source="QtBnAyVnSnONAj75vQxU-1" target="QtBnAyVnSnONAj75vQxU-2" edge="1">
          <mxGeometry relative="1" as="geometry" />
        </mxCell>
        <mxCell id="QtBnAyVnSnONAj75vQxU-1" value="云控下发定向条件" style="rounded=0;whiteSpace=wrap;html=1;" parent="1" vertex="1">
          <mxGeometry x="294" y="110" width="120" height="60" as="geometry" />
        </mxCell>
        <mxCell id="QtBnAyVnSnONAj75vQxU-5" value="" style="edgeStyle=orthogonalEdgeStyle;rounded=0;orthogonalLoop=1;jettySize=auto;html=1;" parent="1" source="QtBnAyVnSnONAj75vQxU-2" target="QtBnAyVnSnONAj75vQxU-4" edge="1">
          <mxGeometry relative="1" as="geometry" />
        </mxCell>
        <mxCell id="QtBnAyVnSnONAj75vQxU-14" style="edgeStyle=orthogonalEdgeStyle;rounded=0;orthogonalLoop=1;jettySize=auto;html=1;exitX=1;exitY=0.5;exitDx=0;exitDy=0;" parent="1" source="QtBnAyVnSnONAj75vQxU-2" target="QtBnAyVnSnONAj75vQxU-10" edge="1">
          <mxGeometry relative="1" as="geometry" />
        </mxCell>
        <mxCell id="QtBnAyVnSnONAj75vQxU-15" value="失败" style="edgeLabel;html=1;align=center;verticalAlign=middle;resizable=0;points=[];" parent="QtBnAyVnSnONAj75vQxU-14" vertex="1" connectable="0">
          <mxGeometry x="-0.1472" y="3" relative="1" as="geometry">
            <mxPoint as="offset" />
          </mxGeometry>
        </mxCell>
        <mxCell id="QtBnAyVnSnONAj75vQxU-2" value="解析设备条件、用户属性" style="whiteSpace=wrap;html=1;rounded=0;" parent="1" vertex="1">
          <mxGeometry x="294" y="250" width="120" height="60" as="geometry" />
        </mxCell>
        <mxCell id="QtBnAyVnSnONAj75vQxU-7" value="" style="edgeStyle=orthogonalEdgeStyle;rounded=0;orthogonalLoop=1;jettySize=auto;html=1;" parent="1" source="QtBnAyVnSnONAj75vQxU-4" target="QtBnAyVnSnONAj75vQxU-6" edge="1">
          <mxGeometry relative="1" as="geometry" />
        </mxCell>
        <mxCell id="QtBnAyVnSnONAj75vQxU-11" value="" style="edgeStyle=orthogonalEdgeStyle;rounded=0;orthogonalLoop=1;jettySize=auto;html=1;" parent="1" source="QtBnAyVnSnONAj75vQxU-4" target="QtBnAyVnSnONAj75vQxU-10" edge="1">
          <mxGeometry relative="1" as="geometry" />
        </mxCell>
        <mxCell id="QtBnAyVnSnONAj75vQxU-16" value="设备不满足" style="edgeLabel;html=1;align=center;verticalAlign=middle;resizable=0;points=[];" parent="QtBnAyVnSnONAj75vQxU-11" vertex="1" connectable="0">
          <mxGeometry x="-0.1923" relative="1" as="geometry">
            <mxPoint as="offset" />
          </mxGeometry>
        </mxCell>
        <mxCell id="QtBnAyVnSnONAj75vQxU-4" value="匹配设备条件" style="whiteSpace=wrap;html=1;rounded=0;" parent="1" vertex="1">
          <mxGeometry x="294" y="390" width="120" height="60" as="geometry" />
        </mxCell>
        <mxCell id="QtBnAyVnSnONAj75vQxU-9" value="" style="edgeStyle=orthogonalEdgeStyle;rounded=0;orthogonalLoop=1;jettySize=auto;html=1;" parent="1" source="QtBnAyVnSnONAj75vQxU-6" target="QtBnAyVnSnONAj75vQxU-8" edge="1">
          <mxGeometry relative="1" as="geometry" />
        </mxCell>
        <mxCell id="QtBnAyVnSnONAj75vQxU-13" style="edgeStyle=orthogonalEdgeStyle;rounded=0;orthogonalLoop=1;jettySize=auto;html=1;exitX=1;exitY=0.5;exitDx=0;exitDy=0;entryX=0.5;entryY=1;entryDx=0;entryDy=0;" parent="1" source="QtBnAyVnSnONAj75vQxU-6" target="QtBnAyVnSnONAj75vQxU-10" edge="1">
          <mxGeometry relative="1" as="geometry" />
        </mxCell>
        <mxCell id="QtBnAyVnSnONAj75vQxU-17" value="用户不满足" style="edgeLabel;html=1;align=center;verticalAlign=middle;resizable=0;points=[];" parent="QtBnAyVnSnONAj75vQxU-13" vertex="1" connectable="0">
          <mxGeometry x="-0.4724" y="1" relative="1" as="geometry">
            <mxPoint as="offset" />
          </mxGeometry>
        </mxCell>
        <mxCell id="QtBnAyVnSnONAj75vQxU-6" value="匹配用户属性" style="whiteSpace=wrap;html=1;rounded=0;" parent="1" vertex="1">
          <mxGeometry x="294" y="530" width="120" height="60" as="geometry" />
        </mxCell>
        <mxCell id="QtBnAyVnSnONAj75vQxU-8" value="返回资源id" style="whiteSpace=wrap;html=1;rounded=0;" parent="1" vertex="1">
          <mxGeometry x="294" y="670" width="120" height="60" as="geometry" />
        </mxCell>
        <mxCell id="QtBnAyVnSnONAj75vQxU-10" value="返回兜底资源id" style="whiteSpace=wrap;html=1;rounded=0;" parent="1" vertex="1">
          <mxGeometry x="570" y="390" width="120" height="60" as="geometry" />
        </mxCell>
      </root>
    </mxGraphModel>
  </diagram>
  <diagram id="t7fGWk84LIHcyVKsF9k8" name="人群定向规则增量更新">
    <mxGraphModel dx="1434" dy="841" grid="1" gridSize="10" guides="1" tooltips="1" connect="1" arrows="1" fold="1" page="1" pageScale="1" pageWidth="827" pageHeight="1169" math="0" shadow="0">
      <root>
        <mxCell id="0" />
        <mxCell id="1" parent="0" />
        <mxCell id="eUjq3mUz9ekJ9BFXjPj8-11" value="" style="edgeStyle=orthogonalEdgeStyle;rounded=0;orthogonalLoop=1;jettySize=auto;html=1;" edge="1" parent="1" source="eUjq3mUz9ekJ9BFXjPj8-9" target="eUjq3mUz9ekJ9BFXjPj8-10">
          <mxGeometry relative="1" as="geometry" />
        </mxCell>
        <mxCell id="eUjq3mUz9ekJ9BFXjPj8-9" value="云控网关更新" style="rounded=0;whiteSpace=wrap;html=1;" vertex="1" parent="1">
          <mxGeometry x="190" y="140" width="120" height="60" as="geometry" />
        </mxCell>
        <mxCell id="eUjq3mUz9ekJ9BFXjPj8-26" value="" style="edgeStyle=orthogonalEdgeStyle;rounded=0;orthogonalLoop=1;jettySize=auto;html=1;" edge="1" parent="1" source="eUjq3mUz9ekJ9BFXjPj8-10" target="eUjq3mUz9ekJ9BFXjPj8-25">
          <mxGeometry relative="1" as="geometry" />
        </mxCell>
        <mxCell id="eUjq3mUz9ekJ9BFXjPj8-10" value="频率限制" style="rounded=0;whiteSpace=wrap;html=1;fillColor=#ffe6cc;strokeColor=#d79b00;" vertex="1" parent="1">
          <mxGeometry x="190" y="250" width="120" height="60" as="geometry" />
        </mxCell>
        <mxCell id="eUjq3mUz9ekJ9BFXjPj8-16" style="edgeStyle=orthogonalEdgeStyle;rounded=0;orthogonalLoop=1;jettySize=auto;html=1;exitX=0;exitY=0.5;exitDx=0;exitDy=0;entryX=0.5;entryY=0;entryDx=0;entryDy=0;" edge="1" parent="1" source="eUjq3mUz9ekJ9BFXjPj8-12" target="eUjq3mUz9ekJ9BFXjPj8-18">
          <mxGeometry relative="1" as="geometry">
            <mxPoint x="120" y="620" as="targetPoint" />
          </mxGeometry>
        </mxCell>
        <mxCell id="eUjq3mUz9ekJ9BFXjPj8-17" value="增量更新规则" style="edgeLabel;html=1;align=center;verticalAlign=middle;resizable=0;points=[];" vertex="1" connectable="0" parent="eUjq3mUz9ekJ9BFXjPj8-16">
          <mxGeometry x="0.05" y="-3" relative="1" as="geometry">
            <mxPoint as="offset" />
          </mxGeometry>
        </mxCell>
        <mxCell id="eUjq3mUz9ekJ9BFXjPj8-12" value="解析respone结构" style="whiteSpace=wrap;html=1;rounded=0;fillColor=#ffe6cc;strokeColor=#d79b00;" vertex="1" parent="1">
          <mxGeometry x="190" y="500" width="120" height="60" as="geometry" />
        </mxCell>
        <mxCell id="eUjq3mUz9ekJ9BFXjPj8-20" value="" style="edgeStyle=orthogonalEdgeStyle;rounded=0;orthogonalLoop=1;jettySize=auto;html=1;" edge="1" parent="1" source="eUjq3mUz9ekJ9BFXjPj8-18" target="eUjq3mUz9ekJ9BFXjPj8-19">
          <mxGeometry relative="1" as="geometry" />
        </mxCell>
        <mxCell id="eUjq3mUz9ekJ9BFXjPj8-18" value="人群定向规则数据库表" style="rounded=0;whiteSpace=wrap;html=1;fillColor=#ffe6cc;strokeColor=#d79b00;" vertex="1" parent="1">
          <mxGeometry x="50" y="605" width="120" height="60" as="geometry" />
        </mxCell>
        <mxCell id="eUjq3mUz9ekJ9BFXjPj8-29" value="" style="edgeStyle=orthogonalEdgeStyle;rounded=0;orthogonalLoop=1;jettySize=auto;html=1;" edge="1" parent="1" source="eUjq3mUz9ekJ9BFXjPj8-19" target="eUjq3mUz9ekJ9BFXjPj8-28">
          <mxGeometry relative="1" as="geometry" />
        </mxCell>
        <mxCell id="eUjq3mUz9ekJ9BFXjPj8-19" value="获取人群定向规则接口" style="whiteSpace=wrap;html=1;rounded=0;fillColor=#ffe6cc;strokeColor=#d79b00;" vertex="1" parent="1">
          <mxGeometry x="310" y="605" width="120" height="60" as="geometry" />
        </mxCell>
        <mxCell id="eUjq3mUz9ekJ9BFXjPj8-23" style="edgeStyle=orthogonalEdgeStyle;rounded=0;orthogonalLoop=1;jettySize=auto;html=1;exitX=0.5;exitY=1;exitDx=0;exitDy=0;entryX=1;entryY=0.5;entryDx=0;entryDy=0;" edge="1" parent="1" source="eUjq3mUz9ekJ9BFXjPj8-21" target="eUjq3mUz9ekJ9BFXjPj8-10">
          <mxGeometry relative="1" as="geometry" />
        </mxCell>
        <mxCell id="eUjq3mUz9ekJ9BFXjPj8-21" value="启动" style="rounded=0;whiteSpace=wrap;html=1;" vertex="1" parent="1">
          <mxGeometry x="370" y="140" width="120" height="60" as="geometry" />
        </mxCell>
        <mxCell id="eUjq3mUz9ekJ9BFXjPj8-27" style="edgeStyle=orthogonalEdgeStyle;rounded=0;orthogonalLoop=1;jettySize=auto;html=1;exitX=0.5;exitY=1;exitDx=0;exitDy=0;entryX=0.5;entryY=0;entryDx=0;entryDy=0;" edge="1" parent="1" source="eUjq3mUz9ekJ9BFXjPj8-25" target="eUjq3mUz9ekJ9BFXjPj8-12">
          <mxGeometry relative="1" as="geometry" />
        </mxCell>
        <mxCell id="eUjq3mUz9ekJ9BFXjPj8-25" value="请求人群定向规则服务接口" style="whiteSpace=wrap;html=1;rounded=0;fillColor=#ffe6cc;strokeColor=#d79b00;" vertex="1" parent="1">
          <mxGeometry x="190" y="390" width="120" height="60" as="geometry" />
        </mxCell>
        <mxCell id="eUjq3mUz9ekJ9BFXjPj8-28" value="人群定向模块" style="whiteSpace=wrap;html=1;rounded=0;fillColor=#ffe6cc;strokeColor=#d79b00;" vertex="1" parent="1">
          <mxGeometry x="510" y="605" width="120" height="60" as="geometry" />
        </mxCell>
        <mxCell id="FRalXqr_FUMa0-KRcLqB-1" value="支持多Appid" style="shape=note;whiteSpace=wrap;html=1;backgroundOutline=1;darkOpacity=0.05;" vertex="1" parent="1">
          <mxGeometry x="280" y="50" width="120" height="60" as="geometry" />
        </mxCell>
      </root>
    </mxGraphModel>
  </diagram>
  <diagram id="k79csPNpYv3mWJo4ksor" name="情景规则增量更新">
    <mxGraphModel dx="1434" dy="841" grid="1" gridSize="10" guides="1" tooltips="1" connect="1" arrows="1" fold="1" page="1" pageScale="1" pageWidth="827" pageHeight="1169" math="0" shadow="0">
      <root>
        <mxCell id="0" />
        <mxCell id="1" parent="0" />
        <mxCell id="RydA8aOy-Gp8qg_N7RbM-1" value="" style="edgeStyle=orthogonalEdgeStyle;rounded=0;orthogonalLoop=1;jettySize=auto;html=1;" edge="1" parent="1" source="RydA8aOy-Gp8qg_N7RbM-2" target="RydA8aOy-Gp8qg_N7RbM-4">
          <mxGeometry relative="1" as="geometry" />
        </mxCell>
        <mxCell id="RydA8aOy-Gp8qg_N7RbM-2" value="云控网关更新" style="rounded=0;whiteSpace=wrap;html=1;" vertex="1" parent="1">
          <mxGeometry x="190" y="140" width="120" height="60" as="geometry" />
        </mxCell>
        <mxCell id="RydA8aOy-Gp8qg_N7RbM-3" value="" style="edgeStyle=orthogonalEdgeStyle;rounded=0;orthogonalLoop=1;jettySize=auto;html=1;" edge="1" parent="1" source="RydA8aOy-Gp8qg_N7RbM-4" target="RydA8aOy-Gp8qg_N7RbM-15">
          <mxGeometry relative="1" as="geometry" />
        </mxCell>
        <mxCell id="RydA8aOy-Gp8qg_N7RbM-4" value="频率限制" style="rounded=0;whiteSpace=wrap;html=1;fillColor=#d5e8d4;strokeColor=#82b366;" vertex="1" parent="1">
          <mxGeometry x="190" y="250" width="120" height="60" as="geometry" />
        </mxCell>
        <mxCell id="RydA8aOy-Gp8qg_N7RbM-5" style="edgeStyle=orthogonalEdgeStyle;rounded=0;orthogonalLoop=1;jettySize=auto;html=1;exitX=0;exitY=0.5;exitDx=0;exitDy=0;entryX=0.5;entryY=0;entryDx=0;entryDy=0;" edge="1" parent="1" source="RydA8aOy-Gp8qg_N7RbM-7" target="RydA8aOy-Gp8qg_N7RbM-9">
          <mxGeometry relative="1" as="geometry">
            <mxPoint x="120" y="620" as="targetPoint" />
          </mxGeometry>
        </mxCell>
        <mxCell id="RydA8aOy-Gp8qg_N7RbM-6" value="增量更新规则" style="edgeLabel;html=1;align=center;verticalAlign=middle;resizable=0;points=[];" vertex="1" connectable="0" parent="RydA8aOy-Gp8qg_N7RbM-5">
          <mxGeometry x="0.05" y="-3" relative="1" as="geometry">
            <mxPoint as="offset" />
          </mxGeometry>
        </mxCell>
        <mxCell id="RydA8aOy-Gp8qg_N7RbM-7" value="解析respone结构" style="whiteSpace=wrap;html=1;rounded=0;fillColor=#d5e8d4;strokeColor=#82b366;" vertex="1" parent="1">
          <mxGeometry x="190" y="500" width="120" height="60" as="geometry" />
        </mxCell>
        <mxCell id="SS7RUtpusNypcH3Qe7tJ-1" style="edgeStyle=orthogonalEdgeStyle;rounded=0;orthogonalLoop=1;jettySize=auto;html=1;exitX=1;exitY=0.5;exitDx=0;exitDy=0;entryX=0;entryY=0.5;entryDx=0;entryDy=0;" edge="1" parent="1" source="RydA8aOy-Gp8qg_N7RbM-9" target="RydA8aOy-Gp8qg_N7RbM-17">
          <mxGeometry relative="1" as="geometry" />
        </mxCell>
        <mxCell id="RydA8aOy-Gp8qg_N7RbM-9" value="情景规则数据库表" style="rounded=0;whiteSpace=wrap;html=1;fillColor=#d5e8d4;strokeColor=#82b366;" vertex="1" parent="1">
          <mxGeometry x="50" y="605" width="120" height="60" as="geometry" />
        </mxCell>
        <mxCell id="RydA8aOy-Gp8qg_N7RbM-12" style="edgeStyle=orthogonalEdgeStyle;rounded=0;orthogonalLoop=1;jettySize=auto;html=1;exitX=0.5;exitY=1;exitDx=0;exitDy=0;entryX=1;entryY=0.5;entryDx=0;entryDy=0;" edge="1" parent="1" source="RydA8aOy-Gp8qg_N7RbM-13" target="RydA8aOy-Gp8qg_N7RbM-4">
          <mxGeometry relative="1" as="geometry" />
        </mxCell>
        <mxCell id="RydA8aOy-Gp8qg_N7RbM-13" value="启动" style="rounded=0;whiteSpace=wrap;html=1;" vertex="1" parent="1">
          <mxGeometry x="370" y="140" width="120" height="60" as="geometry" />
        </mxCell>
        <mxCell id="RydA8aOy-Gp8qg_N7RbM-14" style="edgeStyle=orthogonalEdgeStyle;rounded=0;orthogonalLoop=1;jettySize=auto;html=1;exitX=0.5;exitY=1;exitDx=0;exitDy=0;entryX=0.5;entryY=0;entryDx=0;entryDy=0;" edge="1" parent="1" source="RydA8aOy-Gp8qg_N7RbM-15" target="RydA8aOy-Gp8qg_N7RbM-7">
          <mxGeometry relative="1" as="geometry" />
        </mxCell>
        <mxCell id="RydA8aOy-Gp8qg_N7RbM-15" value="请求情景规则服务接口" style="whiteSpace=wrap;html=1;rounded=0;fillColor=#d5e8d4;strokeColor=#82b366;" vertex="1" parent="1">
          <mxGeometry x="190" y="390" width="120" height="60" as="geometry" />
        </mxCell>
        <mxCell id="SS7RUtpusNypcH3Qe7tJ-3" value="" style="edgeStyle=orthogonalEdgeStyle;rounded=0;orthogonalLoop=1;jettySize=auto;html=1;" edge="1" parent="1" source="RydA8aOy-Gp8qg_N7RbM-17" target="SS7RUtpusNypcH3Qe7tJ-2">
          <mxGeometry relative="1" as="geometry" />
        </mxCell>
        <mxCell id="RydA8aOy-Gp8qg_N7RbM-17" value="情景规则按条件匹配查询接口" style="whiteSpace=wrap;html=1;fillColor=#d5e8d4;strokeColor=#82b366;rounded=0;" vertex="1" parent="1">
          <mxGeometry x="310" y="605" width="120" height="60" as="geometry" />
        </mxCell>
        <mxCell id="SS7RUtpusNypcH3Qe7tJ-2" value="情景触达模块" style="whiteSpace=wrap;html=1;fillColor=#d5e8d4;strokeColor=#82b366;rounded=0;" vertex="1" parent="1">
          <mxGeometry x="510" y="605" width="120" height="60" as="geometry" />
        </mxCell>
        <mxCell id="-1yJtaGECEG4SPjc4uSs-2" value="表结构变更" style="shape=note;whiteSpace=wrap;html=1;backgroundOutline=1;darkOpacity=0.05;" vertex="1" parent="1">
          <mxGeometry x="50" y="665" width="120" height="65" as="geometry" />
        </mxCell>
        <mxCell id="-1yJtaGECEG4SPjc4uSs-3" value="支持多Appid" style="shape=note;whiteSpace=wrap;html=1;backgroundOutline=1;darkOpacity=0.05;" vertex="1" parent="1">
          <mxGeometry x="280" y="50" width="120" height="60" as="geometry" />
        </mxCell>
        <mxCell id="5UdnOSAYCaA_T_ZF7OLG-1" value="匹配逻辑变更" style="shape=note;whiteSpace=wrap;html=1;backgroundOutline=1;darkOpacity=0.05;" vertex="1" parent="1">
          <mxGeometry x="310" y="665" width="120" height="65" as="geometry" />
        </mxCell>
      </root>
    </mxGraphModel>
  </diagram>
</mxfile>
